<svg xmlns="http://www.w3.org/2000/svg" viewBox="0 0 76.71 90.63"><title>coctails</title><ellipse cx="54.67" cy="30.81" rx="8.92" ry="8.98" style="fill:#f7c847"/><ellipse cx="54.67" cy="30.81" rx="7.47" ry="7.52" style="fill:#ffef00"/><path d="M60.86,32.91h2a.77.77,0,0,0,0-1.54h-2a.77.77,0,0,0,0,1.54Z" transform="translate(-2.94 -1.31)" style="fill:#fff;isolation:isolate"/><path d="M58.33,28.82v-2a.77.77,0,1,0-1.53,0v2a.77.77,0,0,0,.77.77A.76.76,0,0,0,58.33,28.82Z" transform="translate(-2.94 -1.31)" style="fill:#fff;isolation:isolate"/><path d="M59.36,33.94a.77.77,0,0,0,0,1.09l1.42,1.43a.75.75,0,0,0,.54.22.76.76,0,0,0,.54-.22.77.77,0,0,0,0-1.09l-1.42-1.43A.76.76,0,0,0,59.36,33.94Z" transform="translate(-2.94 -1.31)" style="fill:#fff;isolation:isolate"/><path d="M55.77,30.34a.77.77,0,0,0,0-1.09l-1.42-1.43a.76.76,0,0,0-1.08,0,.79.79,0,0,0,0,1.09l1.42,1.43a.76.76,0,0,0,.54.22A.75.75,0,0,0,55.77,30.34Z" transform="translate(-2.94 -1.31)" style="fill:#fff;isolation:isolate"/><path d="M59.36,29.25a.77.77,0,0,0,0,1.09.75.75,0,0,0,.54.22.76.76,0,0,0,.54-.22l1.42-1.43a.77.77,0,0,0,0-1.09.76.76,0,0,0-1.08,0Z" transform="translate(-2.94 -1.31)" style="fill:#fff;isolation:isolate"/><polygon points="31.26 66.53 56.56 65.13 53.78 30.2 34.25 30.2 31.26 66.53" style="fill:#fefffd;opacity:0.5"/><path d="M57.25,38.78H36.63L35.2,55.22l-1,10.7A9.18,9.18,0,0,0,43.37,76h7a9.16,9.16,0,0,0,6.82-3,9.28,9.28,0,0,0,2.66-7" transform="translate(-2.94 -1.31)" style="fill:#ff182f"/><path d="M38.1,65.92l1-10.7,1.43-16.44H36.75L35.32,55.22l-1,10.7A9.18,9.18,0,0,0,43.49,76H45.2C42.61,76,37.92,70.47,38.1,65.92Z" transform="translate(-2.94 -1.31)" style="fill:#f7c847;opacity:0.4"/><g style="opacity:0.4"><polygon points="48.08 73.7 54.75 69.23 50.17 62.31 43.5 66.78 48.08 73.7" style="fill:#f7c847"/></g><ellipse cx="35.94" cy="42.78" rx="1.39" ry="1.4" style="fill:#f7c847;opacity:0.4"/><ellipse cx="44.39" cy="63.14" rx="1.39" ry="1.4" style="fill:#f7c847;opacity:0.4"/><ellipse cx="45.48" cy="69.87" rx="0.65" ry="0.66" style="fill:#fefffd;opacity:0.5"/><ellipse cx="45.5" cy="52.37" rx="0.65" ry="0.66" style="fill:#fefffd;opacity:0.5"/><ellipse cx="52.37" cy="41.43" rx="0.65" ry="0.66" style="fill:#fefffd;opacity:0.5"/><ellipse cx="46.98" cy="44.22" rx="0.65" ry="0.66" style="fill:#fefffd;opacity:0.5"/><ellipse cx="52.74" cy="52.25" rx="1.39" ry="1.4" style="fill:#f7c847;opacity:0.4"/><ellipse cx="39.68" cy="72.02" rx="1.39" ry="1.4" style="fill:#f7c847;opacity:0.4"/><g style="opacity:0.4"><polygon points="36.31 71.94 43.03 67.43 38.42 60.46 31.69 64.97 36.31 71.94" style="fill:#f7c847"/></g><g style="opacity:0.4"><polygon points="48.31 61.82 54.23 63.01 55.45 56.88 49.53 55.69 48.31 61.82" style="fill:#f7c847"/></g><polygon points="45.5 87.65 45.45 87.65 45.45 76.89 42.7 76.89 42.7 87.65 42.64 87.65 35.77 89.78 35.77 90.63 52.38 90.63 52.38 89.78 45.5 87.65" style="fill:#fefffd;opacity:0.5"/><path d="M61.76,65.19,60.79,55,58.44,31.47H56.57l2.3,23.76,1,10.73a9.33,9.33,0,0,1-2.63,7,9,9,0,0,1-6.74,3H43.56a9.13,9.13,0,0,1-6.76-3,9.5,9.5,0,0,1-2.61-7.06l3.08-34.45h-2l-2,23.5-1,10.16c-.32,3.35.27,6.69,2.51,9.17a11.82,11.82,0,0,0,8.78,3.91h6.91a11.87,11.87,0,0,0,8.76-3.89C61.47,71.85,62.06,68.52,61.76,65.19Z" transform="translate(-2.94 -1.31)" style="fill:#fefffd;opacity:0.5"/><polygon points="37.74 17.6 35.97 17.94 39.56 37.47 41.39 37.47 37.74 17.6" style="fill:#f3a41d"/><path d="M38.35,16l-7.52,8.24c-.46.57-1.24,3,1,3.54,2.55.61,6.9,1.27,15.76-2.36,4.71-1.93,2-5.47,1.39-5.72l-9.44-4A1,1,0,0,0,38.35,16Z" transform="translate(-2.94 -1.31)" style="fill:#f7c847"/><path d="M39.49,17.25h0a.9.9,0,0,1-1.05-.72L37.78,13A.91.91,0,0,1,38.5,12h0a.9.9,0,0,1,1,.72l.66,3.52A.91.91,0,0,1,39.49,17.25Z" transform="translate(-2.94 -1.31)" style="fill:#f3a41d"/><path d="M38.45,19.05h0c1.88,2.48-2.71,7.77-5.16,5.66h0a.91.91,0,0,1,0-1.29l3.94-4.31A.89.89,0,0,1,38.45,19.05Z" transform="translate(-2.94 -1.31)" style="fill:#fff"/><path d="M42,29.93l-.38.07a.72.72,0,0,1-.83-.57l-.33-1.8,1.77-.34.34,1.81A.72.72,0,0,1,42,29.93Z" transform="translate(-2.94 -1.31)" style="fill:#db6a2a"/><path d="M47.58,62.85h0a.9.9,0,0,0,.72-1.05l-4-23H42.5l4,23.33A.9.9,0,0,0,47.58,62.85Z" transform="translate(-2.94 -1.31)" style="fill:#f7c847;opacity:0.4"/><ellipse cx="52.68" cy="58.85" rx="0.65" ry="0.66" style="fill:#fefffd;opacity:0.5"/><ellipse cx="41.49" cy="66.65" rx="0.65" ry="0.66" style="fill:#fefffd;opacity:0.5"/><rect x="37.95" y="49.87" width="2.57" height="9.71" rx="0.67" ry="0.67" transform="matrix(0.99, 0.1, -0.1, 0.99, 2.82, -5.01)" style="fill:#fff"/><rect x="38.65" y="46.61" width="2.57" height="2.57" rx="0.67" ry="0.67" transform="translate(2.13 -5.12) rotate(5.83)" style="fill:#fff"/><polygon points="48.45 37.47 46.07 58.62 47.68 58.8 50.1 37.47 48.45 37.47" style="fill:#f7c847;opacity:0.4"/><path d="M65.22,3.08l-.8-1.77L57.66,4.22A4.69,4.69,0,0,0,54.86,8L51.39,38.74h1.66L56.34,9.38a4.68,4.68,0,0,1,2.87-3.82Z" transform="translate(-2.94 -1.31)" style="fill:#fff;isolation:isolate"/><polygon points="2.78 73.37 20.9 72.36 18.91 47.34 4.92 47.34 2.78 73.37" style="fill:#fefffd;opacity:0.5"/><path d="M22.23,53.86H7.46l-1,11.78L5.7,73.3a6.58,6.58,0,0,0,1.69,5.06,6.68,6.68,0,0,0,4.9,2.15h5a6.58,6.58,0,0,0,4.89-2.14,6.65,6.65,0,0,0,1.91-5" transform="translate(-2.94 -1.31)" style="fill:#94d700"/><path d="M8.52,73.3l.73-7.66,1-11.78H7.54l-1,11.78L5.79,73.3a6.58,6.58,0,0,0,1.69,5.06,6.66,6.66,0,0,0,4.89,2.15H13.6C11.74,80.51,8.39,76.56,8.52,73.3Z" transform="translate(-2.94 -1.31)" style="fill:#bfe766"/><g style="opacity:0.5"><polygon points="14.83 78.5 19.61 75.3 16.32 70.34 11.54 73.55 14.83 78.5" style="fill:#fff"/></g><ellipse cx="6.13" cy="56.35" rx="1" ry="1.01" style="fill:#fff;opacity:0.4"/><ellipse cx="12.18" cy="70.94" rx="1" ry="1.01" style="fill:#fff;opacity:0.4"/><circle cx="12.96" cy="75.76" r="0.47" style="fill:#fefffd;opacity:0.5"/><circle cx="12.98" cy="63.23" r="0.47" style="fill:#fefffd;opacity:0.5"/><circle cx="17.9" cy="55.39" r="0.47" style="fill:#fefffd;opacity:0.5"/><circle cx="14.04" cy="57.39" r="0.47" style="fill:#fefffd;opacity:0.5"/><ellipse cx="18.16" cy="63.14" rx="1" ry="1.01" style="fill:#fff;opacity:0.4"/><ellipse cx="8.81" cy="77.3" rx="1" ry="1.01" style="fill:#fff;opacity:0.4"/><g style="opacity:0.5"><polygon points="6.39 77.24 11.21 74.01 7.91 69.02 3.09 72.25 6.39 77.24" style="fill:#fff"/></g><g style="opacity:0.5"><polygon points="14.99 69.99 19.23 70.85 20.1 66.46 15.87 65.6 14.99 69.99" style="fill:#fff"/></g><polygon points="12.98 88.5 12.94 88.5 12.94 80.79 10.97 80.79 10.97 88.5 10.93 88.5 6 90.02 6 90.63 17.91 90.63 17.91 90.02 12.98 88.5" style="fill:#fefffd;opacity:0.5"/><path d="M25.46,72.78l-.69-7.33L23.08,48.62H21.75l1.64,17,.7,7.69a6.75,6.75,0,0,1-1.89,5,6.45,6.45,0,0,1-4.83,2.14h-5a6.57,6.57,0,0,1-4.84-2.15A6.81,6.81,0,0,1,5.71,73.3L7.92,48.62H6.5L5.06,65.46l-.72,7.28a8.39,8.39,0,0,0,1.79,6.57,8.5,8.5,0,0,0,6.29,2.8h5a8.52,8.52,0,0,0,6.28-2.79A8.36,8.36,0,0,0,25.46,72.78Z" transform="translate(-2.94 -1.31)" style="fill:#fefffd;opacity:0.5"/><path d="M10.19,45.93l1.45,7.93H13l-1.5-8.23Q10.79,45.81,10.19,45.93Z" transform="translate(-2.94 -1.31)" style="fill:#f3a41d"/><path d="M8.69,37.54l-5.38,5.9c-.33.4-.89,2.14.74,2.53,1.83.44,4.94.92,11.29-1.69,3.37-1.38,1.4-3.92,1-4.09L9.57,37.33A.73.73,0,0,0,8.69,37.54Z" transform="translate(-2.94 -1.31)" style="fill:#f7c847"/><path d="M9.51,38.44h0a.66.66,0,0,1-.76-.52L8.28,35.4a.66.66,0,0,1,.52-.76h0a.64.64,0,0,1,.75.52L10,37.68A.65.65,0,0,1,9.51,38.44Z" transform="translate(-2.94 -1.31)" style="fill:#f3a41d"/><path d="M8.76,39.73h0c1.35,1.77-1.94,5.57-3.69,4.05h0a.65.65,0,0,1,0-.92l2.82-3.09A.64.64,0,0,1,8.76,39.73Z" transform="translate(-2.94 -1.31)" style="fill:#fff"/><path d="M11.31,47.52l-.27,0a.51.51,0,0,1-.59-.41l-.24-1.29,1.27-.24.24,1.29A.51.51,0,0,1,11.31,47.52Z" transform="translate(-2.94 -1.31)" style="fill:#db6a2a"/><path d="M15.3,71.1h0a.65.65,0,0,0,.52-.75L13,53.86H11.66l2.89,16.71A.64.64,0,0,0,15.3,71.1Z" transform="translate(-2.94 -1.31)" style="fill:#f7c847;opacity:0.4"/><circle cx="10.1" cy="73.45" r="0.47" style="fill:#fefffd;opacity:0.5"/><polygon points="15.11 52.56 13.11 70.29 14.46 70.44 16.5 52.56 15.11 52.56" style="fill:#f7c847;opacity:0.4"/><rect x="8.4" y="61.81" width="1.84" height="6.95" rx="0.48" ry="0.48" transform="translate(3.73 -1.92) rotate(5.83)" style="fill:#fff"/><rect x="8.9" y="59.47" width="1.84" height="1.84" rx="0.48" ry="0.48" transform="translate(3.24 -2) rotate(5.83)" style="fill:#fff"/><path d="M27.94,28.55,27.37,27,22.53,29.1a3.35,3.35,0,0,0-2,2.71L18,53.83h1.45l2.35-21a2.74,2.74,0,0,1,1.8-2.48Z" transform="translate(-2.94 -1.31)" style="fill:#fff;isolation:isolate"/><polygon points="75.28 22.49 50.4 19.63 51.83 7.03 76.71 9.88 75.28 22.49" style="fill:#1479fb"/><text transform="matrix(0.99, 0.11, -0.11, 0.99, 52.8, 16.83)" style="font-size:9.776209831237793px;fill:#fff;font-family:VAGRoundedBold, VAGRounded;font-weight:700;letter-spacing:0.027990025000340514em">SALE</text></svg>